<svg id="Capa_1" enable-background="new 0 0 512 512" height="512" viewBox="0 0 512 512" width="512" xmlns="http://www.w3.org/2000/svg" xmlns:xlink="http://www.w3.org/1999/xlink"><linearGradient id="SVGID_1_" gradientUnits="userSpaceOnUse" x1="256" x2="256" y1="361" y2="61"><stop offset="0" stop-color="#00b59c"/><stop offset="1" stop-color="#9cffac"/></linearGradient><linearGradient id="SVGID_2_" gradientUnits="userSpaceOnUse" x1="301" x2="301" y1="451" y2="181"><stop offset="0" stop-color="#c3ffe8"/><stop offset=".9973" stop-color="#f0fff4"/></linearGradient><g><g><g><path d="m508.976 126.967c-2.835-3.757-7.269-5.967-11.976-5.967h-379.686l-14.034-49.121c-1.84-6.44-7.726-10.879-14.423-10.879h-73.857c-8.284 0-15 6.716-15 15s6.716 15 15 15h62.542l74.035 259.121c1.84 6.439 7.726 10.879 14.423 10.879h271c6.697 0 12.583-4.44 14.423-10.879l60-210c1.293-4.526.387-9.396-2.447-13.154z" fill="url(#SVGID_1_)"/></g></g><g><g><path d="m211 361c-24.813 0-45 20.187-45 45s20.187 45 45 45 45-20.187 45-45-20.187-45-45-45zm180 0c-24.813 0-45 20.187-45 45s20.187 45 45 45 45-20.187 45-45-20.187-45-45-45zm-90-180c-8.284 0-15 6.716-15 15v90c0 8.284 6.716 15 15 15s15-6.716 15-15v-90c0-8.284-6.716-15-15-15zm75 120c8.284 0 15-6.716 15-15v-90c0-8.284-6.716-15-15-15s-15 6.716-15 15v90c0 8.284 6.716 15 15 15zm-150 0c8.284 0 15-6.716 15-15v-90c0-8.284-6.716-15-15-15s-15 6.716-15 15v90c0 8.284 6.716 15 15 15z" fill="url(#SVGID_2_)"/></g></g></g></svg>