<svg width="362" height="88" viewBox="0 0 362 88" fill="none" xmlns="http://www.w3.org/2000/svg">
<path d="M95.096 18.6V36.384C92.72 33.648 89.192 31.992 84.368 31.992C74.936 31.992 67.16 40.272 67.16 51C67.16 61.728 74.936 70.008 84.368 70.008C89.192 70.008 92.72 68.352 95.096 65.616V69H105.896V18.6H95.096ZM86.528 59.784C81.56 59.784 77.96 56.4 77.96 51C77.96 45.6 81.56 42.216 86.528 42.216C91.496 42.216 95.096 45.6 95.096 51C95.096 56.4 91.496 59.784 86.528 59.784ZM121.307 55.32H146.867C147.155 53.952 147.299 52.512 147.299 51C147.299 40.128 139.523 31.992 129.011 31.992C117.635 31.992 109.859 40.272 109.859 51C109.859 61.728 117.491 70.008 129.803 70.008C136.643 70.008 141.971 67.488 145.499 62.592L136.859 57.624C135.419 59.208 132.899 60.36 129.947 60.36C125.987 60.36 122.675 59.064 121.307 55.32ZM121.091 47.256C122.099 43.584 124.835 41.568 128.939 41.568C132.179 41.568 135.419 43.08 136.571 47.256H121.091ZM151.265 69H162.065V16.44H151.265V69ZM173.208 29.832C176.736 29.832 179.688 26.88 179.688 23.352C179.688 19.824 176.736 16.872 173.208 16.872C169.68 16.872 166.728 19.824 166.728 23.352C166.728 26.88 169.68 29.832 173.208 29.832ZM167.808 69H178.608V33H167.808V69ZM224.671 31.992C219.559 31.992 216.247 33.864 214.231 36.744C212.215 33.72 209.047 31.992 204.799 31.992C199.975 31.992 196.807 33.864 195.151 36.312V33H184.351V69H195.151V48.696C195.151 44.448 197.167 41.928 200.767 41.928C204.223 41.928 205.951 44.232 205.951 47.832V69H216.751V48.696C216.751 44.448 218.767 41.928 222.367 41.928C225.823 41.928 227.551 44.232 227.551 47.832V69H238.351V46.896C238.351 37.896 232.951 31.992 224.671 31.992ZM253.222 55.32H278.782C279.07 53.952 279.214 52.512 279.214 51C279.214 40.128 271.438 31.992 260.926 31.992C249.55 31.992 241.774 40.272 241.774 51C241.774 61.728 249.406 70.008 261.718 70.008C268.558 70.008 273.886 67.488 277.414 62.592L268.774 57.624C267.334 59.208 264.814 60.36 261.862 60.36C257.902 60.36 254.59 59.064 253.222 55.32ZM253.006 47.256C254.014 43.584 256.75 41.568 260.854 41.568C264.094 41.568 267.334 43.08 268.486 47.256H253.006ZM304.276 31.992C299.524 31.992 295.924 33.72 293.98 36.384V33H283.18V69H293.98V49.344C293.98 44.232 296.716 41.928 300.676 41.928C304.132 41.928 306.94 44.016 306.94 48.48V69H317.74V46.896C317.74 37.176 311.548 31.992 304.276 31.992ZM352.012 18.6H339.052L333.292 28.68H343.66L352.012 18.6ZM346.252 33V52.656C346.252 57.768 343.516 60.072 339.556 60.072C336.1 60.072 333.292 57.984 333.292 53.52V33H322.492V55.104C322.492 64.824 328.684 70.008 335.956 70.008C340.708 70.008 344.308 68.28 346.252 65.616V69H357.052V33H346.252Z" fill="black"/>
<g clip-path="url(#clip0)">
<path d="M26.5 41.6784C24.1575 41.6784 22.1698 43.227 21.5068 45.354H31.4933C30.8302 43.227 28.8425 41.6784 26.5 41.6784Z" fill="black"/>
<path d="M13.2997 22.6949H37.9379V16L13.2997 22.6949Z" fill="black"/>
<path d="M11.9539 25.8007V69H41.0461V25.8007H11.9539ZM18.1655 46.907C18.1655 42.8421 21.0913 39.4497 24.9471 38.7198V35.463H28.0529V38.7199C31.9086 39.4498 34.8345 42.8422 34.8345 46.9071V48.46H18.1655V46.907ZM34.8357 54.6765H18.1644V51.5707H34.8357V54.6765Z" fill="black"/>
</g>
<defs>
<clipPath id="clip0">
<rect width="53" height="53" fill="white" transform="translate(0 16)"/>
</clipPath>
</defs>
</svg>
