<svg xmlns="http://www.w3.org/2000/svg" xmlns:xlink="http://www.w3.org/1999/xlink" viewBox="0 0 695.15 500"><defs><style>.cls-1,.cls-2{opacity:0.21;}.cls-1{fill:url(#linear-gradient);}.cls-2{fill:url(#linear-gradient-2);}.cls-3{opacity:0.39;fill:url(#linear-gradient-3);}.cls-4{fill:#e34d4d;}.cls-5{fill:#161f52;}.cls-6{fill:#452d0a;}.cls-7{fill:#ffd278;}.cls-8{fill:#db8953;}.cls-9{fill:#7a2121;}.cls-10{fill:#450f0f;}.cls-11,.cls-14,.cls-15,.cls-18,.cls-20,.cls-21,.cls-24,.cls-26,.cls-29,.cls-30{fill:none;stroke-miterlimit:10;}.cls-11{stroke:#a65f30;}.cls-11,.cls-15,.cls-26,.cls-30{stroke-width:0.78px;}.cls-12{fill:#38479c;}.cls-13{fill:#f77979;}.cls-14{stroke:#7a2121;stroke-width:0.7px;}.cls-15{stroke:#051145;}.cls-16{fill:#98a2d6;}.cls-17{fill:#c1c8eb;}.cls-18{stroke:#452d0a;}.cls-19{fill:#fff;}.cls-20{stroke:#98a2d6;}.cls-21{stroke:#fff;stroke-width:0.81px;}.cls-22{fill:#318f61;}.cls-23{fill:#051145;}.cls-24,.cls-29{stroke:#161f52;}.cls-24{stroke-width:2px;}.cls-25{fill:#263382;}.cls-26{stroke:#263382;}.cls-27{fill:#ffca96;}.cls-28{fill:#d9a573;}.cls-30{stroke:#e34d4d;}.cls-31,.cls-33{opacity:0.55;}.cls-31{fill:url(#linear-gradient-4);}.cls-32{fill:url(#linear-gradient-5);}.cls-33{fill:url(#linear-gradient-6);}.cls-34{fill:url(#linear-gradient-7);}</style><linearGradient id="linear-gradient" x1="280.55" y1="46.77" x2="169.6" y2="379.63" gradientTransform="translate(247.69 -69.82) rotate(45)" gradientUnits="userSpaceOnUse"><stop offset="0" stop-color="#fff"/><stop offset="1" stop-color="#9daaeb" stop-opacity="0"/></linearGradient><linearGradient id="linear-gradient-2" x1="559.47" y1="17.04" x2="448.52" y2="349.89" gradientTransform="matrix(1, 0, 0, 1, 0, 0)" xlink:href="#linear-gradient"/><linearGradient id="linear-gradient-3" x1="374.24" y1="-7.25" x2="374.24" y2="218.93" gradientTransform="matrix(1, 0, 0, 1, 0, 0)" xlink:href="#linear-gradient"/><linearGradient id="linear-gradient-4" x1="565.54" y1="114.24" x2="565.54" y2="286.25" gradientTransform="matrix(1, 0, 0, 1, 0, 0)" xlink:href="#linear-gradient"/><linearGradient id="linear-gradient-5" x1="565.54" y1="128.42" x2="565.54" y2="12.39" gradientTransform="matrix(1, 0, 0, 1, 0, 0)" xlink:href="#linear-gradient"/><linearGradient id="linear-gradient-6" x1="151.35" y1="114.24" x2="151.35" y2="286.25" gradientTransform="matrix(1, 0, 0, 1, 0, 0)" xlink:href="#linear-gradient"/><linearGradient id="linear-gradient-7" x1="151.35" y1="128.42" x2="151.35" y2="12.39" gradientTransform="matrix(1, 0, 0, 1, 0, 0)" xlink:href="#linear-gradient"/></defs><g id="Capa_2" data-name="Capa 2"><g id="OBJECTS"><circle class="cls-1" cx="208.12" cy="264.07" r="208.12" transform="translate(-125.77 224.51) rotate(-45)"/><circle class="cls-2" cx="487.03" cy="234.34" r="208.12"/><circle class="cls-3" cx="374.24" cy="152.38" r="129.78"/><path class="cls-4" d="M311.42,247.35l-2.92,23.07a20.21,20.21,0,0,0,14.22,21.89l29.76,9-5.91-53.93Z"/><polygon class="cls-5" points="455.17 282 474.29 404 370.43 404 402.92 279.88 455.17 282"/><path class="cls-6" d="M399,109s1.2-12.45.64-19.27-6.87-12.57-15.74-12.44c-5.92.09-29.76,3.09-31.3,10.4-1.34,6.33,9.14,6.68,9.14,6.68l25.24,15Z"/><path class="cls-7" d="M404,135.69l38.21,11.72a67.19,67.19,0,0,1,45,46.14l16.43,58.81H308.6l8.4-61.9A47.3,47.3,0,0,1,346.16,153L377,140.56Z"/><path class="cls-8" d="M427.81,235.36c6.18-11.17,4.4-31.44,13.45-30.77l7.38,42.76Z"/><path class="cls-9" d="M350.08,192.78c3.17-26.65,11.35-42.25,15.59-48.8l9.11-3.65s-13.86,15.75-18.22,52.45Z"/><path class="cls-9" d="M400.76,192.78c.62-30.72,8.15-48.17,12.29-55.72,0,0,2.95.88,6.16,2.21-4.26,8.65-10.43,25.74-11,53.51Z"/><path class="cls-10" d="M400.89,188.75c-.06,1.32-.1,2.66-.13,4h7.46c0-1.37.07-2.71.13-4Z"/><path class="cls-10" d="M357.09,188.75h-6.47c-.19,1.32-.37,2.66-.54,4h6.48C356.72,191.41,356.9,190.07,357.09,188.75Z"/><line class="cls-11" x1="335.88" y1="191.94" x2="339.54" y2="227.13"/><polygon class="cls-8" points="308.6 252.36 450.07 252.36 503.66 252.36 500.87 242.34 309.96 242.34 308.6 252.36"/><polygon class="cls-12" points="349.22 190.62 411.54 190.62 447.16 239.47 455.17 282 446.43 292.63 451.76 500 293 498.71 343.4 295.31 337.94 225.16 349.22 190.62"/><line class="cls-11" x1="447.16" y1="239.47" x2="440.04" y2="197.38"/><path class="cls-13" d="M449.58,252.36l3,15.8-58.46,6.47S385.85,269.19,380,269a12.26,12.26,0,0,0-7.2,1.69,1.19,1.19,0,0,0-.23,1.81,5,5,0,0,0,1.76,1.19,14,14,0,0,1-7.43-2,3.21,3.21,0,0,0-1.6-.42h-7s5.51,14.41,33.94,12.75c0,0,35.13,11.44,62.94,16.13s39.43-5.82,42.62-15.38,0-32.39,0-32.39Z"/><line class="cls-14" x1="452.56" y1="268.16" x2="471.87" y2="265.77"/><path class="cls-4" d="M497.79,252.36H449.58l.86,4.54c9.18,1.05,35.36,4.29,48.56,8.34C498.61,258.22,497.79,252.36,497.79,252.36Z"/><path class="cls-15" d="M374.37,273.69s5.34-1.17,8.76.56"/><path class="cls-15" d="M363.78,271.25s2.29,5.2,13.31,6.23"/><path class="cls-15" d="M360.45,271.44s3.31,7.4,14.33,8.44"/><ellipse class="cls-16" cx="363.99" cy="268.97" rx="64.76" ry="7"/><ellipse class="cls-17" cx="336.19" cy="267.87" rx="18.74" ry="2.42"/><ellipse class="cls-17" cx="390.65" cy="267.33" rx="18.74" ry="2.42"/><path class="cls-13" d="M392.79,104.47c2-3.66,7-4.69,9.38-1.5s.84,9.56-4.08,10.59l6,22.13A19.14,19.14,0,0,1,388,145c-8.72.37-11.06-4.41-11.06-4.41V128.09s-8.82-1.12-11.91-7-1.87-16.12-1.87-16.12a44.22,44.22,0,0,1-1.41-10.6A67.35,67.35,0,0,0,380.7,90.5c-5,4.22-6.19,7.69,6.09,0C386.7,97.16,390,103.53,392.79,104.47Z"/><path class="cls-14" d="M396.17,109.86c-1.83-1.41-1.18-5.86,1.64-6.19s3.23,2.49,2.81,3.57"/><path class="cls-14" d="M369.7,100.77l1.46,1.19a1.48,1.48,0,0,1,.55,1.27l-.37,5.6"/><path class="cls-18" d="M372.63,98.66a7.78,7.78,0,0,1,6.8-.28"/><path class="cls-18" d="M367.9,99.55a4.26,4.26,0,0,0-4.36.56"/><path class="cls-4" d="M395.43,118.45s-3.3,15.18-18.48,16.3V126.6Z"/><path class="cls-14" d="M364.48,103.34c.47-1.82,3.09-1.87,4.4-.51"/><path class="cls-14" d="M378.67,102.71c-.74-1.73-3.34-1.37-4.43.18"/><path class="cls-19" d="M391.71,110.73c-2-3.52.78-6.38.63-6.46a29.17,29.17,0,0,1-4.21,2.45c-3,1.41-8.51.63-14.42-.49-5.39-1-7.74,0-10.78,2.86,0,3.5.29,8.49,2.11,12,3.09,5.91,11.91,7,11.91,7,11.74,1.13,21.55-13.48,21.55-13.48l-.41-1S393.68,114.24,391.71,110.73Z"/><path class="cls-19" d="M322.14,265.11a5.58,5.58,0,0,0,3.4,2,66.76,66.76,0,0,0,20.09,0,5.57,5.57,0,0,0,3.77-2.51c2.11-3.26,5.54-10.82,5.54-25.39H316.23c0,.31,0,.61,0,.92a14.11,14.11,0,0,0-9.46,2.22,9,9,0,0,0-3.77,7.5C303,260.08,314.39,264.54,322.14,265.11Zm-15.9-15.26a5.74,5.74,0,0,1,2.44-4.89,10.13,10.13,0,0,1,5.91-1.68,1.86,1.86,0,0,1,1.84,1.74,54.17,54.17,0,0,0,2.43,13.29,1.88,1.88,0,0,1-2.37,2.38C311.43,259.06,306.25,255.69,306.24,249.85Z"/><polyline class="cls-20" points="415.12 204.59 399.8 209.09 391.36 259.71"/><path class="cls-19" d="M375,224.2l4.47,42.66c.07.67,5.1,1.21,11.23,1.21s11.17-.54,11.24-1.21l4.47-42.66Z"/><circle class="cls-7" cx="374.95" cy="224.2" r="9.84"/><line class="cls-21" x1="374.95" y1="214.36" x2="374.95" y2="234.05"/><line class="cls-21" x1="384.79" y1="224.2" x2="365.1" y2="224.2"/><line class="cls-21" x1="367.99" y1="217.24" x2="381.91" y2="231.17"/><line class="cls-21" x1="381.91" y1="217.24" x2="367.99" y2="231.17"/><polygon class="cls-17" points="645.32 473.3 634.93 473.3 654.98 322.55 665.37 322.55 645.32 473.3"/><polygon class="cls-17" points="535.72 473.3 525.32 473.3 545.37 322.55 555.76 322.55 535.72 473.3"/><path class="cls-19" d="M665.37,322.55h-120a13,13,0,0,1,12.54-11.07h97.87a9.48,9.48,0,0,1,9.59,11.07Z"/><polygon class="cls-19" points="662.64 343.08 542.64 343.08 544.11 332.01 664.11 332.01 662.64 343.08"/><polygon class="cls-19" points="659.91 363.61 539.91 363.61 541.38 352.55 661.38 352.55 659.91 363.61"/><polygon class="cls-19" points="657.18 384.14 537.18 384.14 538.65 373.08 658.65 373.08 657.18 384.14"/><polygon class="cls-19" points="654.45 404.67 534.45 404.67 535.92 393.61 655.92 393.61 654.45 404.67"/><polygon class="cls-19" points="651.72 425.2 531.72 425.2 533.19 414.14 653.19 414.14 651.72 425.2"/><rect class="cls-17" x="485.94" y="490.44" width="167.25" height="9.56"/><path class="cls-19" d="M493.16,473.3H646a7.22,7.22,0,0,1,7.22,7.22v9.92a0,0,0,0,1,0,0H485.94a0,0,0,0,1,0,0v-9.92A7.22,7.22,0,0,1,493.16,473.3Z"/><polygon class="cls-17" points="71.56 473.3 81.95 473.3 61.91 322.55 51.52 322.55 71.56 473.3"/><polygon class="cls-17" points="181.17 473.3 191.56 473.3 171.51 322.55 161.12 322.55 181.17 473.3"/><path class="cls-19" d="M51.51,322.55h120A13,13,0,0,0,159,311.48H61.11a9.48,9.48,0,0,0-9.6,11.07Z"/><polygon class="cls-19" points="54.24 343.08 174.25 343.08 172.77 332.01 52.77 332.01 54.24 343.08"/><polygon class="cls-19" points="56.98 363.61 176.97 363.61 175.5 352.55 55.5 352.55 56.98 363.61"/><polygon class="cls-19" points="59.7 384.14 179.71 384.14 178.23 373.08 58.23 373.08 59.7 384.14"/><polygon class="cls-19" points="62.44 404.67 182.44 404.67 180.96 393.61 60.96 393.61 62.44 404.67"/><polygon class="cls-19" points="65.17 425.2 185.17 425.2 183.69 414.14 63.69 414.14 65.17 425.2"/><rect class="cls-17" x="63.69" y="490.44" width="167.25" height="9.56" transform="translate(294.64 990.44) rotate(180)"/><path class="cls-19" d="M63.69,473.3H230.94a0,0,0,0,1,0,0v9.92a7.22,7.22,0,0,1-7.22,7.22H70.92a7.22,7.22,0,0,1-7.22-7.22V473.3a0,0,0,0,1,0,0Z" transform="translate(294.64 963.74) rotate(180)"/><polygon class="cls-22" points="167.25 264.91 207.93 269.38 216.56 447.32 152.81 447.32 167.25 264.91"/><polygon class="cls-12" points="198.47 264.91 201.47 270.5 206.06 448.16 249.47 447.03 241.31 272.38 198.47 264.91"/><path class="cls-5" d="M212.81,327.5l11.38-26.95a16.14,16.14,0,0,0-2.88-17.11l-15.54-17.26-7.3-1.27,3,5.59,2.95,114.37h0l17.59-30a14.6,14.6,0,0,0-.83-16Z"/><path class="cls-5" d="M213.73,225.78s9.67.28,11.74-7-5.82-17.62-12.47-18.66c-2.82-6.09-28.88-5.81-37.13-3.18a13,13,0,0,0-8.44,17.62s-4.87,18.94,8.82,24.94Z"/><path class="cls-5" d="M103.31,445.11v24.31A30.58,30.58,0,0,0,133.89,500h179l-19.5-54.89Z"/><polygon class="cls-13" points="200.81 474.23 229.56 468.09 202.22 450.13 200.81 474.23"/><path class="cls-13" d="M184,225.31s-1.69-5.72-6.75-4.87-9.47,13.31,2.62,14.15l-3.65,4.88-7.88,26.44S173.26,276.64,190,276c10.31-.37,11.44-5.53,11.44-5.53h0a17.4,17.4,0,0,1-1.43-8.42l.61-7.42s4.38.22,9.44-6.46,3.09-16.89,3.09-16.89l3.38-13.5s-6.66-3-8.34-9.18c0,0-7.36,9.73-18.56,10.78a3.13,3.13,0,0,0-2.53,1.73C186.4,222.6,185.23,224.62,184,225.31Z"/><path class="cls-4" d="M182.88,243.2s2.73,15.79,17.18,18.61l.89-9.31Z"/><polyline class="cls-14" points="206.79 222.59 205.38 225.27 206.79 231.66"/><path class="cls-23" d="M202.61,223.15c-.32,1.44-1.28,2.45-2.13,2.25s-1.28-1.51-.95-3,1.27-2.45,2.13-2.26S202.94,221.71,202.61,223.15Z"/><path class="cls-23" d="M213.09,225.5c-.32,1.44-1.27,2.45-2.13,2.26s-1.28-1.51-1-2.95,1.27-2.45,2.13-2.26S213.42,224.06,213.09,225.5Z"/><path class="cls-24" d="M209.39,219.73a6.4,6.4,0,0,1,6.32,1.48"/><path class="cls-24" d="M205.38,218.8s-1.43-3.24-6.91-2.63"/><path class="cls-12" d="M169.59,261.81a215,215,0,0,1,3.09,51.82c-1.87,27.75-9.72,121.5-9.72,121.5l41.6,13.5,1.5,28.5s-45,.37-77.63,0-57.37-15.09-57-39.38S88.68,327.5,94.68,306.88s10.13-34.13,27.38-38.25S169.59,261.81,169.59,261.81Z"/><path class="cls-25" d="M165.15,408.75C144.05,384.59,135,336.87,135,336.87l-9.57,85.69L163,435.13S163.88,424.22,165.15,408.75Z"/><line class="cls-26" x1="125.43" y1="422.56" x2="101.99" y2="414.83"/><line class="cls-26" x1="137.64" y1="316.34" x2="125.43" y2="422.56"/><path class="cls-5" d="M167,386.27c2.23-27.27,4.73-58.51,5.68-72.64a215,215,0,0,0-3.09-51.82s-2.49.23-6.45.64L149,285.25a13.46,13.46,0,0,0-.93,12.42l14.49,33.67-5.64,5.79a17.22,17.22,0,0,0-3.38,19Z"/><path class="cls-14" d="M181.79,227.87c-.28-2.53-1.16-5.06-3.46-4.85s-4.69,4.14-2.79,7.24"/><path class="cls-19" d="M182.89,223s1.89,2.29,7.33,4.07,10.87.38,15.18,1a19.79,19.79,0,0,1,7.78,3.18s2.14,8.66-2,15.25-8.48,9.69-16.44,7.53-15.16-11.45-16.39-19.69l1.57.19s4.32,4.36,7.22-.84-3.09-8.44-3.09-8.44Z"/><path class="cls-13" d="M514.19,287.38c-8.6,5.12-17.88,21.3-27.69,42.24s-35.79,80.06-35.79,80.06H492.6l17.79-42.07,13-69Z"/><path class="cls-4" d="M486,330.68c9.83,19,15.73,46.92,12.58,64.83l11.8-27.9,13-69-9.16-11.22c-8.6,5.12-17.88,21.3-27.69,42.24Z"/><path class="cls-27" d="M592.09,288l8,4.6L608.12,434H496.37l14-66.39s-16.27-18.55,1.36-52.11c0,0,3.19-14.72,2.44-28.12l5.62-2.63Z"/><path class="cls-28" d="M602.35,332.81l-10.26-3.3S564.48,395.56,526,407.38c-30.87,9.48,48.75,12.8,81.37,13.74Z"/><path class="cls-5" d="M608.12,434l5,35.21A27,27,0,0,1,586.4,500h-168l22.5-67.22Z"/><path class="cls-5" d="M563.22,215.7s5.9-3.37,13.36,3.1,5.06,12.93,9.28,18.7,9.84,6.61,11,13.5-2.53,6.59-1.69,12.79,2.39,11.26-4.22,13.51-22.22-3.66-29.81-3.66-22.36,1.27-30.8-3.8a16.14,16.14,0,0,1-8-16.87c.7-3.52,1.82-5.38,1-12s.28-12,6.89-15.1,6.54-7.45,9-12.24S555.06,204.45,563.22,215.7Z"/><path class="cls-13" d="M567.93,269.71l-1-17.38a3.3,3.3,0,0,0,3.18.27c4.17-1.88,6.27-10.74,1.72-12.22-2.53-.83-4.32,1.28-5.4,3.25l-.21-3.69c-11.35-2.35-11-15-11-15-6.56,5.62-13.5,3.65-18.56,7.5l.18,9.84s-3.93,6.66-2,12.56,10.87,8.54,10.87,8.54l-.55,7.52a4.25,4.25,0,0,1-2.49,3.54l-22.93,10.31s10.5,9,31.74,10.41c20.86,1.38,40.54-7.13,40.54-7.13L570.41,274A5.44,5.44,0,0,1,567.93,269.71Z"/><path class="cls-4" d="M563.94,257.35s-6.14,11.22-18.51,10.8l.35-4.77Z"/><polyline class="cls-14" points="546.88 235.62 547.54 237.49 545.76 242.79"/><path class="cls-14" d="M550,236.41c1.13-1.5,5-1.45,6.38.47"/><path class="cls-14" d="M539.14,236.41c1.12-1.5,5-1.45,6.37.47"/><path class="cls-29" d="M549.72,232.25s3-1.17,8.32.47"/><path class="cls-29" d="M545.51,232.25s-4.33-1-7.44.47"/><path class="cls-14" d="M567.3,246.5c.7-1.78,2.29-4,4-3.71s.94,4.13,0,5.35"/><path class="cls-19" d="M566.43,243.63l-.09-1.59a81.39,81.39,0,0,1-10,.47c-4.77-.14-9.49-1.71-12.83-1.58a25.63,25.63,0,0,0-6.68,1.35s-3.93,6.66-2,12.56,10.87,8.54,10.87,8.54c7.83,1.64,15.85-1.63,21.22-9.95l-.07-1.1s-5.09,3.15-6.18-1.5S564.81,243.39,566.43,243.63Z"/><path class="cls-17" d="M519.9,428.47c-29.21-12.6-90.53-21.28-161.46-21.28S226.19,415.87,197,428.47H178.8v16.64c0,20.95,80.43,37.92,179.64,37.92s179.65-17,179.65-37.92V428.47Z"/><rect class="cls-17" x="345.69" y="454.25" width="25.5" height="45.75"/><ellipse class="cls-19" cx="358.44" cy="428.47" rx="179.64" ry="37.92"/><polygon class="cls-22" points="305.05 439.05 229.12 430.56 267.48 407.4 343.41 415.89 305.05 439.05"/><polygon class="cls-22" points="452.04 439.05 527.98 430.56 489.62 407.4 413.68 415.89 452.04 439.05"/><path class="cls-25" d="M248.06,438.38c-4,.73-9.84-4.84-11.63-12.06s23.82-4.59,23.82-4.59S253.87,437.32,248.06,438.38Z"/><path class="cls-13" d="M236.39,416.19l-8.47,6.73-18.07,4.21A4.89,4.89,0,0,0,207,429c-1.88,2.6-5.5,8.13-6.19,12.75,0,0,7.17,4.61,11.54,6.2a1.68,1.68,0,0,0,2.12-1,49.33,49.33,0,0,1,4.13-7.76s12.68,2.06,16.9-4.5l22.22-5.63S247.6,413.19,236.39,416.19Z"/><path class="cls-30" d="M210.37,430.23s-5,7-7,13.15"/><path class="cls-30" d="M213.19,433.1a49.06,49.06,0,0,0-6.31,12.17"/><path class="cls-30" d="M216.22,435.64a44.28,44.28,0,0,0-5.85,11.49"/><path class="cls-12" d="M241.31,272.66c16.59,3.68,24.75,16.88,36.84,35.44,7.73,11.86,25,50.58,36.44,77a26.3,26.3,0,0,1-15.39,35.27l-51.14,18s5.25-18.9-12.09-22.28l29.25-27-29.25-56Z"/><line class="cls-26" x1="265.22" y1="389.1" x2="280.12" y2="376.35"/><path class="cls-25" d="M243.21,313.31s10.31,34.6,11.94,56.53l-10.22-19.55Z"/><path class="cls-13" d="M600.06,292.91c11.53,7.88,20,16,24.75,39.94,3.44,17.22,5.28,50.23,5.62,76A30.19,30.19,0,0,1,605,439.11c-24.88,4-64.53,8.29-101.72,3.43,0,0-5.36,2.26-9.86,1.31s-6.42-1.23-6.42-1.23-1.5,4.23-5.19,4.09c-2.72-.1-12.24-3.18-17-4.79a3.12,3.12,0,0,1-2-3.93c.73-2.23,2-5.07,3.85-6.16,3.27-1.91,30.51-1.44,30.51-1.44l88.27-28.19,6.14-61.57s-5.46-9.47-4-18.47C591.07,301.72,600.06,292.91,600.06,292.91Z"/><line class="cls-14" x1="487.03" y1="442.62" x2="482.45" y2="441.98"/><path class="cls-14" d="M482,439.44s1.5,2.11-.51,4.83"/><path class="cls-14" d="M480,435.74c-1.27.33-3.57,6.77-4.08,9.66"/><path class="cls-14" d="M475.15,434.29c-1.26.33-3.55,6.78-4.06,9.67"/><path class="cls-14" d="M470.83,433.07c-1.27.33-4.13,6.42-4.64,9.31"/><path class="cls-4" d="M588.25,319c-.21,1-.41,2.1-.6,3.2-1.5,9,4,18.47,4,18.47C592.49,330.86,592.39,319.74,588.25,319Z"/><polygon class="cls-4" points="585.47 402.2 604.08 395.8 585.93 397.53 585.47 402.2"/><path class="cls-17" d="M408.55,409.17c0,2.88-11.77,5.21-26.29,5.21s-26.3-2.33-26.3-5.21,11.77-5.2,26.3-5.2S408.55,406.3,408.55,409.17Z"/><path class="cls-5" d="M363.14,368.72v39.35c0,1.45,8.81,2.62,19.68,2.62s19.67-1.17,19.67-2.62V368.72Z"/><ellipse class="cls-23" cx="382.82" cy="368.72" rx="19.68" ry="2.63"/><path class="cls-22" d="M388.08,351.57c-3.67,4.05-5.46,8.93-5.25,13.14,4.22-.19,8.91-2.44,12.58-6.49s5.46-8.92,5.25-13.13C396.44,345.28,391.76,347.53,388.08,351.57Z"/><path class="cls-22" d="M377.55,345.74c3.67,4.05,5.47,8.93,5.25,13.14-4.21-.19-8.9-2.45-12.57-6.49s-5.47-8.92-5.25-13.13C369.19,339.44,373.88,341.7,377.55,345.74Z"/><line class="cls-15" x1="382.82" y1="343.95" x2="382.82" y2="368.72"/><path class="cls-4" d="M391.19,334.09c-2-.16-4.94,2.82-4.94,2.82a11.32,11.32,0,0,0-3.43-6.65,11.37,11.37,0,0,0-3.44,6.65s-2.93-3-4.94-2.82a14,14,0,0,0,8.38,12.67A14,14,0,0,0,391.19,334.09Z"/><circle class="cls-31" cx="565.54" cy="235.64" r="98.7"/><path class="cls-32" d="M611,147.57,585.33,127.9A46.46,46.46,0,0,1,567.12,91V0H564V91a46.46,46.46,0,0,1-18.21,36.88l-25.67,19.67Z"/><circle class="cls-33" cx="151.35" cy="235.64" r="98.7"/><path class="cls-34" d="M196.82,147.57,171.14,127.9A46.46,46.46,0,0,1,152.93,91V0h-3.16V91a46.46,46.46,0,0,1-18.21,36.88l-25.68,19.67Z"/></g></g></svg>